<?xml version="1.0" encoding="utf-8"?>
<!-- Generator: Adobe Illustrator 26.0.3, SVG Export Plug-In . SVG Version: 6.00 Build 0)  -->
<svg version="1.1" id="Layer_1" xmlns="http://www.w3.org/2000/svg" xmlns:xlink="http://www.w3.org/1999/xlink" x="0px" y="0px"
	 viewBox="0 0 20.4 17.1" style="enable-background:new 0 0 20.4 17.1;" xml:space="preserve">
<path d="M0,17.1l0.8-0.9c0.2-0.2,0.4-0.5,0.6-0.8c0.6-0.9,1-1.7,1.2-2.5c-1.5-1.4-2.2-3.1-2.2-5c0-4.4,4.5-7.9,10-7.9
	c5.5,0,10,3.5,10,7.9c0,4.4-4.5,7.9-10,7.9c-1.4,0-2.9-0.2-4.2-0.7l0,0l0,0c-1.6,1.2-3.3,1.8-5,1.9L0,17.1z M10.4,1
	c-5,0-9,3.1-9,6.9c0,1.6,0.7,3,1.9,4.3l0.4,0.4l-0.1,0.5c-0.2,0.9-0.7,1.8-1.3,2.7c1.1-0.3,2.3-0.8,3.3-1.6l0.4-0.3l0.5,0.2
	c1.2,0.4,2.5,0.7,3.9,0.7c5,0,9-3.1,9-6.9C19.4,4.1,15.4,1,10.4,1z"/>
</svg>
