<?xml version="1.0" encoding="utf-8"?>
<!-- Generator: Adobe Illustrator 26.0.3, SVG Export Plug-In . SVG Version: 6.00 Build 0)  -->
<svg version="1.1" id="Layer_1" xmlns="http://www.w3.org/2000/svg" xmlns:xlink="http://www.w3.org/1999/xlink" x="0px" y="0px"
	 viewBox="0 0 420 420" style="enable-background:new 0 0 420 420;" xml:space="preserve">
<path d="M116.7,116.7V23.3C116.7,10.5,127.1,0,140,0s23.3,10.4,23.3,23.3V140c0,12.9-10.4,23.3-23.3,23.3H23.3
	C10.4,163.3,0,152.9,0,140s10.4-23.3,23.3-23.3L116.7,116.7z M116.7,396.7v-93.3H23.3C10.4,303.3,0,292.9,0,280
	c0-12.9,10.4-23.3,23.3-23.3H140c12.9,0,23.3,10.4,23.3,23.3v116.7c0,12.9-10.4,23.3-23.3,23.3S116.7,409.6,116.7,396.7L116.7,396.7
	z M303.3,23.3v93.3h93.3c12.9,0,23.3,10.4,23.3,23.3s-10.4,23.3-23.3,23.3H280c-12.9,0-23.3-10.4-23.3-23.3V23.3
	C256.7,10.4,267.1,0,280,0C292.9,0,303.3,10.4,303.3,23.3L303.3,23.3z M396.7,303.3h-93.3v93.3c0,12.9-10.4,23.3-23.3,23.3
	c-12.9,0-23.3-10.4-23.3-23.3V280c0-12.9,10.4-23.3,23.3-23.3h116.7c12.9,0,23.3,10.4,23.3,23.3C420,292.9,409.6,303.3,396.7,303.3
	L396.7,303.3z"/>
</svg>
