<svg xmlns="http://www.w3.org/2000/svg" viewBox="0 0 156.12 62.32"><defs><style>.cls-1{fill:#fff;}</style></defs><g id="Layer_2" data-name="Layer 2"><g id="Layer_1-2" data-name="Layer 1"><path class="cls-1" d="M24.8,59.43,21.32,50a6.46,6.46,0,0,0-.95-1.89A1.8,1.8,0,0,0,19,47.62a2.06,2.06,0,0,0-1.86.93,2.79,2.79,0,0,1,.76,1.05l-4,10.27a4.64,4.64,0,0,1-.51,1,1.18,1.18,0,0,1-.54.45,1.51,1.51,0,0,0,.72.72,2.68,2.68,0,0,0,1.18.27c.87,0,1.48-.52,1.85-1.57l.48-1.36h4.41l.47,1.2A3.22,3.22,0,0,0,22.8,62a2,2,0,0,0,1.24.37,2.74,2.74,0,0,0,1.3-.29,1.81,1.81,0,0,0,.8-.82A3,3,0,0,1,24.8,59.43Zm-7.09-1.91,1.61-5,1.42,5Z"/><path class="cls-1" d="M110.32,59.56,108,56.16a4.88,4.88,0,0,0,2-1.51,4,4,0,0,0-.95-5.65,6.86,6.86,0,0,0-4-1.19h-3.22a2.24,2.24,0,0,0-1.79.86,1.37,1.37,0,0,1,.66,1.34V60c0,1.54.63,2.31,1.9,2.31a2.32,2.32,0,0,0,1.79-.83,1.41,1.41,0,0,1-.64-1.38V56.73h1.14l2.26,3.67a4.79,4.79,0,0,0,1.34,1.53,2.52,2.52,0,0,0,1.38.39A2.19,2.19,0,0,0,112,61,4.92,4.92,0,0,1,110.32,59.56ZM107,54a3.21,3.21,0,0,1-2.07.58H103.8V50h1.11a3.15,3.15,0,0,1,2.07.6,2,2,0,0,1,.72,1.69A2.07,2.07,0,0,1,107,54Z"/><path class="cls-1" d="M8.47,54.32c-.78-.4-1.56-.77-2.35-1.11a14.61,14.61,0,0,1-2-1.06,1.54,1.54,0,0,1-.82-1.21,1.18,1.18,0,0,1,.68-1,3.43,3.43,0,0,1,1.73-.39,2.87,2.87,0,0,1,1.63.39,1.09,1.09,0,0,1,.58.9,1.82,1.82,0,0,1-.15.79,2.46,2.46,0,0,0,1.49.51,1.77,1.77,0,0,0,1.25-.43A1.55,1.55,0,0,0,11,50.49a2.36,2.36,0,0,0-1.46-2.05,7.56,7.56,0,0,0-3.76-.82,6.76,6.76,0,0,0-3.91,1.09A3.35,3.35,0,0,0,.25,51.62a2.79,2.79,0,0,0,.82,2,7,7,0,0,0,2,1.42c.79.37,1.57.73,2.35,1.07a9,9,0,0,1,2,1.14,1.81,1.81,0,0,1,.83,1.44A1.48,1.48,0,0,1,7.55,60a3.21,3.21,0,0,1-1.88.49A3.85,3.85,0,0,1,3.77,60a1.17,1.17,0,0,1-.7-1,1.34,1.34,0,0,1,.46-1,2.52,2.52,0,0,0-1.59-.62,2.11,2.11,0,0,0-1.38.48A1.66,1.66,0,0,0,0,59.15a2.62,2.62,0,0,0,1.63,2.3,8.39,8.39,0,0,0,4,.87,6.71,6.71,0,0,0,4-1.18,3.67,3.67,0,0,0,1.67-3.07,3.28,3.28,0,0,0-.83-2.18A6.46,6.46,0,0,0,8.47,54.32Z"/><path class="cls-1" d="M41.29,49.91c0-1.53-.65-2.29-1.94-2.29a2.22,2.22,0,0,0-1.77.84,1.35,1.35,0,0,1,.64,1.34v8.42l-5.36-8.89a3.09,3.09,0,0,0-2.74-1.71,2.55,2.55,0,0,0-2.09.84,1.37,1.37,0,0,1,.64,1.34V60a2.73,2.73,0,0,0,.46,1.75,1.84,1.84,0,0,0,1.48.56,2.3,2.3,0,0,0,1.75-.83,1.41,1.41,0,0,1-.62-1.38v-8L36,59.29a9.23,9.23,0,0,0,1.88,2.35,3.22,3.22,0,0,0,2,.68,2.5,2.5,0,0,0,1.75-.56,3,3,0,0,1-.37-1.65Z"/><path class="cls-1" d="M97.48,59.43,94,50a7,7,0,0,0-1-1.89,1.8,1.8,0,0,0-1.42-.52,2.08,2.08,0,0,0-1.87.93,2.59,2.59,0,0,1,.76,1.05l-4,10.27a5.21,5.21,0,0,1-.5,1,1.25,1.25,0,0,1-.55.45,1.56,1.56,0,0,0,.72.72,2.73,2.73,0,0,0,1.19.27c.86,0,1.48-.52,1.84-1.57l.49-1.36h4.4l.47,1.2A3.32,3.32,0,0,0,95.48,62a2,2,0,0,0,1.25.37A2.77,2.77,0,0,0,98,62a1.78,1.78,0,0,0,.79-.82A3,3,0,0,1,97.48,59.43ZM90.4,57.52l1.61-5,1.42,5Z"/><path class="cls-1" d="M55.53,57.72A5.52,5.52,0,0,1,53.84,59a4.78,4.78,0,0,1-2.21.54,4,4,0,0,1-3-1.1,5.21,5.21,0,0,1-1.07-3.67,7,7,0,0,1,1-4A2.85,2.85,0,0,1,51,49.33a1.54,1.54,0,0,1,1.38.64,1.73,1.73,0,0,1,.27.93,4.63,4.63,0,0,1-.08.88,2.87,2.87,0,0,0,1.54.4,2.65,2.65,0,0,0,1.49-.4,1.49,1.49,0,0,0,.62-1.3,2.34,2.34,0,0,0-1.45-2,6.92,6.92,0,0,0-3.5-.84,6.42,6.42,0,0,0-5,2,7.83,7.83,0,0,0-1.84,5.46,7.79,7.79,0,0,0,1.68,5.32,6.16,6.16,0,0,0,4.78,1.88,6.47,6.47,0,0,0,3.79-1.11,3,3,0,0,0,1.59-2.29A1.17,1.17,0,0,0,55.53,57.72Z"/><path class="cls-1" d="M81.72,47.62a2.3,2.3,0,0,0-1.79.84,1.37,1.37,0,0,1,.66,1.34v7.65a2.43,2.43,0,0,1-.77,1.94,3.05,3.05,0,0,1-2,.66,3,3,0,0,1-2-.66A2.4,2.4,0,0,1,75,57.45V49.91a2.71,2.71,0,0,0-.46-1.73,1.87,1.87,0,0,0-1.5-.56,2.26,2.26,0,0,0-1.75.84,1.37,1.37,0,0,1,.66,1.34V57a5.24,5.24,0,0,0,1.44,3.92,6.13,6.13,0,0,0,4.41,1.4,6.13,6.13,0,0,0,4.41-1.4A5.21,5.21,0,0,0,83.64,57V49.91C83.64,48.38,83,47.62,81.72,47.62Z"/><path class="cls-1" d="M67.77,47.81h-7a6,6,0,0,1-2.29-.34A1.86,1.86,0,0,0,58,48.59c0,1,.62,1.5,1.87,1.5h2.44V60c0,1.54.64,2.31,1.91,2.31A2.3,2.3,0,0,0,66,61.49a1.42,1.42,0,0,1-.64-1.38v-10h1.54a5.78,5.78,0,0,1,2.29.35,1.88,1.88,0,0,0,.48-1.13Q69.63,47.81,67.77,47.81Z"/><path class="cls-1" d="M155.85,51.23l-.74-.72a68.16,68.16,0,0,0-5.42-4.3c-2.25-1.71-4.61-3.29-7-4.88-1.12-.76-2.21-1.56-3.38-2.24a2.12,2.12,0,0,1-1.17-1.42,6.19,6.19,0,0,0-.32-.81,1.16,1.16,0,0,0-.57-.66,11.1,11.1,0,0,0-1-.51c-.07,0-.22,0-.12-.17.25-.29.07-.51-.08-.74-1-1.44-2-2.83-3-4.23a.68.68,0,0,1-.23-.47,2.88,2.88,0,0,1,.47.15,1.74,1.74,0,0,0,.84.15.7.7,0,0,0,.7-.9,2.49,2.49,0,0,0-.25-.69,9.36,9.36,0,0,0-.93-1.39c-.09-.11-.2-.26-.29-.39.19-.83.37-1.69.54-2.63.05-.27.09-.54.13-.8a1.33,1.33,0,0,0,.35.13,1.53,1.53,0,0,0,.74,0,1.21,1.21,0,0,0-.25-.29,1.11,1.11,0,0,0-.39-.2,2,2,0,0,1-.36-.2c0-.17.05-.34.07-.52a1.46,1.46,0,0,0,.39.13c.34.08.29.1.51.07s.24.07.29,0a.12.12,0,0,0,0-.05c0-.14-.27-.31-.27-.32a2.85,2.85,0,0,0-.84-.42v0l.43.09a.88.88,0,0,0,.45,0,.82.82,0,0,0,.23-.11,2.15,2.15,0,0,0-.81-.46l-.24-.05.06-.64a2.31,2.31,0,0,1,.49-.07,2.33,2.33,0,0,0,.72-.1.26.26,0,0,0,.09-.09c0-.05,0-.08-.08-.08a10.39,10.39,0,0,0-1-.22h-.13a42.49,42.49,0,0,0-.86-13.52C132.9,3.76,132.34,1,131.34.1c-.17-.17-.39-.12-.73.12s-.86.41-.63.79a20.67,20.67,0,0,1,2,5.71,41.36,41.36,0,0,1,.85,13.45l-.32,0a5.17,5.17,0,0,0-.68,0c-.26.05-.37.19-.3.46a.25.25,0,0,1-.15.36.32.32,0,0,0-.17.41,1,1,0,0,1-.09.74.26.26,0,0,0,0,.33.44.44,0,0,1,.09.27l.06,1.64s0,.13-.09.16l-.74-.74a23.22,23.22,0,0,0-4.57-3.64,6.25,6.25,0,0,0-2.48-.94,3,3,0,0,1-1.82-.86A12.63,12.63,0,0,0,117.87,16,32.14,32.14,0,0,0,114,14.84a.53.53,0,0,0-.28,0,.93.93,0,0,1-.67-.14c0-.06.14,0,.12-.13a1.35,1.35,0,0,1-.66-.07s-.11,0-.11,0c0,.26-.23.13-.35.15a8.71,8.71,0,0,0-1,0,.56.56,0,0,1-.4,0c.08-.12.24-.11.31-.28a13.22,13.22,0,0,1-1.32.31c.11-.12.28-.09.42-.28-1.33.54-2.72.43-4,.89,0-.16.18-.21.1-.42A4.34,4.34,0,0,1,104,16a19.71,19.71,0,0,0-4.29,1.61,3.86,3.86,0,0,0-.73.23c-.07,0-.14.09-.21.09a4.53,4.53,0,0,0-1.72.49l-2,.47a3.45,3.45,0,0,1-.54.11,22.63,22.63,0,0,0-5.08.94,9,9,0,0,0-4,2.25,13,13,0,0,0-2.72,4.08A11.3,11.3,0,0,0,81.58,29a.4.4,0,0,1-.17.27,9.83,9.83,0,0,0-1.32,1.26,10.39,10.39,0,0,0-1.4,1.84,6.93,6.93,0,0,0-1,3.57c0,.1,0,.24.1.27s.14-.1.2-.17a18.68,18.68,0,0,1,4-4A6.79,6.79,0,0,1,85,30.6a20.43,20.43,0,0,1,5.89.2c.53.09,1,.23,1.56.37l-.08.11a1.47,1.47,0,0,1-.88.4c-.27,0-.59-.24-.84-.3-.09,0-.36,0-.06.16s.79.34.26.45a6.3,6.3,0,0,1-1.12.14c-.16,0-.68,0-.24.09s.44.06.19.41a2.94,2.94,0,0,0-.18,2c.14.3.18.23.2.07s.07.31.18.53a.81.81,0,0,0,.76.43,1,1,0,0,0,1.09.32.69.69,0,0,0,.94.38s.2,1.52.61.6c0,0,.6,1.08,1.13.2a1.46,1.46,0,0,0,1.39.29c.79-.28.52-.68.52-.68s0,.29-.24.28-.58-.75-.65-1.16c0,0,1,.41,1.28.81a1.47,1.47,0,0,0-.57-1.09l.57.11a.83.83,0,0,0-.37-.82.47.47,0,0,1,.38,0s0,.15,0,.15.2-.27.31-.44a.2.2,0,0,0-.09-.14s.34-.28.19-1.5c0,.16.23.11.36.44a1.09,1.09,0,0,1-.17.92c.19-.12.23,0,.21.24a3.22,3.22,0,0,1-.78,1.43l.12-.07c.86-.43,1-2.31,1.35-2.39.21.45-.23,1.24-.23,1.24a2.18,2.18,0,0,0,.45-.92c.06.19.3.27.47.38s.07,0,.1,0,.12-.13.14,0a.44.44,0,0,0,.15.46c1,.73,1.8,1.59,2.74,2.34a21.6,21.6,0,0,0,5.64,3.26,19.15,19.15,0,0,0,2.08.76c.09,0,.3.16.21-.13,0-.09-.07-.2,0-.27s.19,0,.27,0a6.68,6.68,0,0,0,1.66.38,3.78,3.78,0,0,1,1.11.12,6.62,6.62,0,0,1,2.7,1.9c.2.23.42.44.62.66l.29.36.09-.09a6.54,6.54,0,0,1-.86-1.22l.93.73.06-.07-.52-.75c.25,0,.35.13.48.24s.11.17.16.07.21,0,.3,0l1.42.44a1.06,1.06,0,0,1,.48.3c.23.25.48.49.72.74l0,0-.61-.81c.63.17,1,.68,1.58.71.06,0-.09-.14,0-.22a1.51,1.51,0,0,0,.75.11c.47-.09.85.26,1.16.63a.26.26,0,0,1,0,.43c-.37.33-.72.68-1.08,1a.64.64,0,0,0-.19.8.92.92,0,0,1,0,.84.34.34,0,0,0,.07.46l.61.62.24.2c-.41.6-1.08,1.68-1.61,2.35A5.19,5.19,0,0,1,119,53.17l-2.24-3.67a5.65,5.65,0,0,0-1.1-1.39,1.77,1.77,0,0,0-1.26-.49,2,2,0,0,0-2,1.55,1.59,1.59,0,0,1,1.21.84l3.59,5.9,0,4a2.72,2.72,0,0,0,.47,1.73,1.61,1.61,0,0,0,1.32.58,3.71,3.71,0,0,0,1.57-.33,3.45,3.45,0,0,1-.33-1.65c0-1.45,0-2.1,0-3.56a2.14,2.14,0,0,1,.75-1.89,17.88,17.88,0,0,0,2.21-2.7c.3-.44.59-.91.88-1.37a1.27,1.27,0,0,0,.67.22l0-.16a1.59,1.59,0,0,0-.32-.55l.34-.56a4.2,4.2,0,0,0,.83.06l-.53-.56.13-.22.25.07.6.09a2.36,2.36,0,0,0-.44-.55l-.12-.11c.14-.25.29-.53.44-.83a1,1,0,0,0,.5.06c.12,0,.15-.05.12-.19a.56.56,0,0,0-.33-.41h0c.31-.61.62-1.29.93-2a2.14,2.14,0,0,0,.46.49c.13-.08,0-.2.08-.28l1,1.22.08,0-.25-.81c.58.53.68,1.32,1.17,1.87.11-.16,0-.28,0-.44l.52,1.06.1,0c-.2-.67-.51-1.32-.66-2,.38.41.54,1,.91,1.44.07-.19-.09-.29,0-.53.15.18.26.33.38.46,1.12,1.14,2.23,2.29,3.36,3.42,2.19,2.2,4.37,4.41,6.63,6.54,1.18,1.11,2.34,2.27,3.54,3.37A15.13,15.13,0,0,0,146,62.14a.93.93,0,0,0,.7.17,7,7,0,0,0,1.85-.55,2.19,2.19,0,0,0,1-.72,2.06,2.06,0,0,1,1-.83,1.86,1.86,0,0,0,1-1.24,10,10,0,0,0,.33-1.31,2.13,2.13,0,0,1,.12-.63c.12-.23.41-.09.62-.14a6.32,6.32,0,0,0,2.7-1.5.54.54,0,0,0,.16-.24,11.23,11.23,0,0,0,.54-3.25A.94.94,0,0,0,155.85,51.23Zm-23.1-30.38a0,0,0,0,1,0,0c0,.05,0,.1,0,.15s-.11,0-.13,0S132.67,20.88,132.75,20.85Zm-.17,1.27h0c0,.05,0,.09,0,.14s-.08-.05-.08-.08S132.52,22.15,132.58,22.12Zm-.65.84s0,0,.12,0a1,1,0,0,1,.3,0l.14,0c-.13.86-.28,1.69-.45,2.47h0c-.05-.09-.12-.16-.12-.25,0-.3,0-.6,0-.9v-.16h0c0-.31,0-.62,0-.93C131.89,23.13,131.87,23,131.93,23Zm-8.09,22.77c0-.14-.06-.19-.11-.25s-.07-.21,0-.22c.38-.06.35-.54.68-.65.07,0,.12-.1.19-.11s.31-.07.4,0a.1.1,0,0,1,0,.09l.06,0c-.3.54-.6,1.08-.89,1.58l-.39-.14a4.51,4.51,0,0,1-.63-.29C123.4,45.51,123.6,45.41,123.84,45.73Zm-1.26.89c.09-.07.15-.21.27-.24a.22.22,0,0,1,.12,0c.27.08.4.12.67.22l.28.08c-.12.2-.23.39-.35.57a1.93,1.93,0,0,1-.4-.14c-.24-.11-.2-.14-.37-.2a.8.8,0,0,1-.21-.15.13.13,0,0,1,0-.09A.08.08,0,0,1,122.58,46.62Zm-.41,1.26s0-.23.1-.28.16.08.23.14.22.2.34.29l.2.11c-.1.15-.18.29-.26.4a2.42,2.42,0,0,1-.24-.19A2.73,2.73,0,0,1,122.17,47.88Z"/></g></g></svg>