<svg xmlns="http://www.w3.org/2000/svg" viewBox="0 0 187.2 62.32"><defs><style>.cls-1{fill:#fff;}.cls-2{fill:none;}</style></defs><g id="Layer_2" data-name="Layer 2"><g id="Layer_1-2" data-name="Layer 1"><path class="cls-1" d="M55.88,59.43,52.4,50a6.72,6.72,0,0,0-.95-1.89A1.8,1.8,0,0,0,50,47.62a2.06,2.06,0,0,0-1.86.93,2.68,2.68,0,0,1,.75,1.05l-4,10.27a5.21,5.21,0,0,1-.5,1,1.18,1.18,0,0,1-.54.45,1.49,1.49,0,0,0,.71.72,2.73,2.73,0,0,0,1.19.27c.87,0,1.48-.52,1.84-1.57l.49-1.36h4.41l.46,1.2A3.23,3.23,0,0,0,53.88,62a2,2,0,0,0,1.24.37,2.77,2.77,0,0,0,1.3-.29,1.81,1.81,0,0,0,.8-.82A2.94,2.94,0,0,1,55.88,59.43Zm-7.09-1.91,1.61-5,1.42,5Z"/><path class="cls-1" d="M141.4,59.56l-2.29-3.4a5,5,0,0,0,2-1.51,3.81,3.81,0,0,0,.75-2.37A3.74,3.74,0,0,0,140.2,49a6.88,6.88,0,0,0-4-1.19h-3.23a2.24,2.24,0,0,0-1.78.86,1.37,1.37,0,0,1,.66,1.34V60c0,1.54.63,2.31,1.9,2.31a2.33,2.33,0,0,0,1.79-.83,1.41,1.41,0,0,1-.64-1.38V56.73H136l2.25,3.67a4.92,4.92,0,0,0,1.34,1.53,2.57,2.57,0,0,0,1.38.39,2.2,2.2,0,0,0,2.1-1.3A4.83,4.83,0,0,1,141.4,59.56ZM138.06,54a3.22,3.22,0,0,1-2.08.58h-1.1V50H136a3.16,3.16,0,0,1,2.08.6,2,2,0,0,1,.72,1.69A2.07,2.07,0,0,1,138.06,54Z"/><path class="cls-1" d="M39.54,54.32c-.77-.4-1.56-.77-2.35-1.11a15.9,15.9,0,0,1-2-1.06,1.55,1.55,0,0,1-.81-1.21,1.17,1.17,0,0,1,.68-1,3.43,3.43,0,0,1,1.73-.39,2.87,2.87,0,0,1,1.63.39,1.09,1.09,0,0,1,.58.9,1.68,1.68,0,0,1-.16.79,2.51,2.51,0,0,0,1.5.51,1.74,1.74,0,0,0,1.24-.43,1.56,1.56,0,0,0,.47-1.17,2.38,2.38,0,0,0-1.46-2.05,7.58,7.58,0,0,0-3.77-.82,6.71,6.71,0,0,0-3.9,1.09,3.35,3.35,0,0,0-1.59,2.91,2.83,2.83,0,0,0,.81,2,7.3,7.3,0,0,0,2,1.42c.79.37,1.58.73,2.35,1.07a8.76,8.76,0,0,1,2,1.14,1.79,1.79,0,0,1,.84,1.44,1.48,1.48,0,0,1-.7,1.28,3.21,3.21,0,0,1-1.88.49A3.89,3.89,0,0,1,34.84,60a1.19,1.19,0,0,1-.7-1,1.35,1.35,0,0,1,.47-1A2.56,2.56,0,0,0,33,57.37a2.11,2.11,0,0,0-1.38.48,1.63,1.63,0,0,0-.56,1.3,2.62,2.62,0,0,0,1.63,2.3,8.36,8.36,0,0,0,4,.87,6.71,6.71,0,0,0,4-1.18,3.67,3.67,0,0,0,1.67-3.07,3.24,3.24,0,0,0-.84-2.18A6.34,6.34,0,0,0,39.54,54.32Z"/><path class="cls-1" d="M72.37,49.91c0-1.53-.65-2.29-2-2.29a2.18,2.18,0,0,0-1.76.84,1.37,1.37,0,0,1,.64,1.34v8.42l-5.36-8.89a3.1,3.1,0,0,0-2.74-1.71,2.59,2.59,0,0,0-2.1.84,1.35,1.35,0,0,1,.64,1.34V60a2.73,2.73,0,0,0,.47,1.75,1.82,1.82,0,0,0,1.48.56,2.26,2.26,0,0,0,1.74-.83,1.43,1.43,0,0,1-.62-1.38v-8l4.27,7.16A9.45,9.45,0,0,0,69,61.64a3.2,3.2,0,0,0,2,.68,2.47,2.47,0,0,0,1.74-.56,3.06,3.06,0,0,1-.36-1.65Z"/><path class="cls-1" d="M128.56,59.43,125.08,50a6.46,6.46,0,0,0-1-1.89,1.78,1.78,0,0,0-1.41-.52,2.06,2.06,0,0,0-1.87.93,2.69,2.69,0,0,1,.76,1.05l-4,10.27a4.64,4.64,0,0,1-.51,1,1.18,1.18,0,0,1-.54.45,1.56,1.56,0,0,0,.72.72,2.68,2.68,0,0,0,1.18.27c.87,0,1.49-.52,1.85-1.57l.48-1.36h4.41l.47,1.2a3.32,3.32,0,0,0,.87,1.36,2,2,0,0,0,1.24.37,2.74,2.74,0,0,0,1.3-.29,1.81,1.81,0,0,0,.8-.82A3,3,0,0,1,128.56,59.43Zm-7.09-1.91,1.61-5,1.42,5Z"/><path class="cls-1" d="M86.61,57.72A5.65,5.65,0,0,1,84.92,59a4.79,4.79,0,0,1-2.22.54,4,4,0,0,1-3-1.1,5.21,5.21,0,0,1-1.06-3.67,7,7,0,0,1,1-4A2.83,2.83,0,0,1,82,49.33,1.51,1.51,0,0,1,83.4,50a1.74,1.74,0,0,1,.28.93,4.63,4.63,0,0,1-.08.88,2.86,2.86,0,0,0,1.53.4,2.71,2.71,0,0,0,1.5-.4,1.49,1.49,0,0,0,.62-1.3,2.35,2.35,0,0,0-1.46-2,6.86,6.86,0,0,0-3.49-.84,6.42,6.42,0,0,0-5,2,7.83,7.83,0,0,0-1.85,5.46,7.79,7.79,0,0,0,1.69,5.32,6.14,6.14,0,0,0,4.78,1.88,6.49,6.49,0,0,0,3.79-1.11,3,3,0,0,0,1.59-2.29A1.17,1.17,0,0,0,86.61,57.72Z"/><path class="cls-1" d="M112.8,47.62a2.3,2.3,0,0,0-1.79.84,1.37,1.37,0,0,1,.66,1.34v7.65a2.4,2.4,0,0,1-.78,1.94,3.44,3.44,0,0,1-4,0,2.4,2.4,0,0,1-.78-1.94V49.91a2.71,2.71,0,0,0-.47-1.73,1.85,1.85,0,0,0-1.49-.56,2.25,2.25,0,0,0-1.75.84A1.37,1.37,0,0,1,103,49.8V57a5.24,5.24,0,0,0,1.44,3.92,7.63,7.63,0,0,0,8.81,0A5.21,5.21,0,0,0,114.72,57V49.91C114.72,48.38,114.08,47.62,112.8,47.62Z"/><path class="cls-1" d="M98.85,47.81h-7a6,6,0,0,1-2.29-.34A1.8,1.8,0,0,0,89,48.59q0,1.5,1.86,1.5h2.45V60c0,1.54.64,2.31,1.9,2.31A2.32,2.32,0,0,0,97,61.49a1.41,1.41,0,0,1-.64-1.38v-10h1.53a5.75,5.75,0,0,1,2.29.35,1.84,1.84,0,0,0,.49-1.13Q100.71,47.81,98.85,47.81Z"/><path class="cls-1" d="M186.92,51.23c-.23-.24-.48-.48-.73-.72a68.16,68.16,0,0,0-5.42-4.3c-2.26-1.71-4.61-3.29-7-4.88-1.12-.76-2.21-1.56-3.38-2.24a2.16,2.16,0,0,1-1.18-1.42,6.13,6.13,0,0,0-.31-.81,1.14,1.14,0,0,0-.58-.66,9.11,9.11,0,0,0-1-.51c-.06,0-.21,0-.11-.17.25-.29.07-.51-.09-.74-.94-1.44-1.94-2.83-3-4.23a.72.72,0,0,1-.22-.47,3.1,3.1,0,0,1,.46.15,1.78,1.78,0,0,0,.85.15.71.71,0,0,0,.7-.9,2.51,2.51,0,0,0-.26-.69,8.64,8.64,0,0,0-.93-1.39c-.09-.11-.19-.26-.29-.39.2-.83.38-1.69.55-2.63.05-.27.08-.54.13-.8a1.15,1.15,0,0,0,.34.13,1.53,1.53,0,0,0,.74,0,1,1,0,0,0-.24-.29,1.11,1.11,0,0,0-.39-.2,2,2,0,0,1-.36-.2c0-.17.05-.34.07-.52a1.34,1.34,0,0,0,.39.13c.34.08.29.1.51.07s.23.07.29,0a.12.12,0,0,0,0-.05c0-.14-.27-.31-.28-.32a2.6,2.6,0,0,0-.84-.42v0l.44.09a.88.88,0,0,0,.45,0,1,1,0,0,0,.23-.11,2.15,2.15,0,0,0-.81-.46l-.24-.05.06-.64a2.31,2.31,0,0,1,.48-.07,2.35,2.35,0,0,0,.73-.1s.07-.05.08-.09,0-.08-.07-.08c-.29,0-.72-.24-1-.22h-.14a42.2,42.2,0,0,0-.86-13.52C164,3.76,163.42,1,162.42.1c-.17-.17-.39-.12-.74.12s-.86.41-.63.79a20.64,20.64,0,0,1,2,5.71,41.64,41.64,0,0,1,.85,13.45l-.32,0a5.17,5.17,0,0,0-.68,0c-.26.05-.38.19-.3.46s0,.28-.16.36-.2.23-.17.41a.88.88,0,0,1-.09.74.29.29,0,0,0,0,.33.45.45,0,0,1,.1.27c0,.55,0,1.09.05,1.64,0,0,0,.13-.09.16l-.73-.74A23,23,0,0,0,157,20.22a6.2,6.2,0,0,0-2.48-.94,2.94,2.94,0,0,1-1.81-.86A12.76,12.76,0,0,0,149,16a32.7,32.7,0,0,0-3.85-1.15.57.57,0,0,0-.29,0,.89.89,0,0,1-.66-.14c0-.06.14,0,.12-.13a1.33,1.33,0,0,1-.66-.07s-.11,0-.12,0c0,.26-.22.13-.34.15a9,9,0,0,0-1,0,.53.53,0,0,1-.39,0c.08-.12.24-.11.3-.28a13,13,0,0,1-1.31.31c.11-.12.28-.09.42-.28-1.34.54-2.72.43-4,.89,0-.16.18-.21.1-.42A4.38,4.38,0,0,1,135.06,16a20,20,0,0,0-4.3,1.61,3.56,3.56,0,0,0-.72.23c-.07,0-.14.09-.21.09a4.48,4.48,0,0,0-1.72.49l-2,.47a3.33,3.33,0,0,1-.53.11,22.43,22.43,0,0,0-5.08.94,9.05,9.05,0,0,0-4,2.25,13,13,0,0,0-2.71,4.08A10.54,10.54,0,0,0,112.66,29a.4.4,0,0,1-.17.27,10.55,10.55,0,0,0-1.33,1.26,10.9,10.9,0,0,0-1.4,1.84,7,7,0,0,0-1,3.57c0,.1,0,.24.1.27s.15-.1.2-.17a19.15,19.15,0,0,1,4-4,6.84,6.84,0,0,1,3.08-1.39,20.49,20.49,0,0,1,5.9.2c.53.09,1,.23,1.56.37l-.08.11a1.49,1.49,0,0,1-.88.4c-.28,0-.6-.24-.84-.3s-.36,0-.06.16.78.34.25.45a6.22,6.22,0,0,1-1.11.14c-.17,0-.68,0-.25.09s.44.06.19.41a3,3,0,0,0-.17,2c.13.3.17.23.2.07s.07.31.18.53a.8.8,0,0,0,.76.43,1,1,0,0,0,1.09.32.69.69,0,0,0,.94.38s.2,1.52.61.6c0,0,.6,1.08,1.13.2a1.46,1.46,0,0,0,1.39.29c.79-.28.51-.68.51-.68s0,.29-.23.28-.58-.75-.65-1.16a3.62,3.62,0,0,1,1.28.81,1.47,1.47,0,0,0-.57-1.09l.57.11a.83.83,0,0,0-.38-.82.47.47,0,0,1,.38,0s0,.15,0,.15.21-.27.32-.44a.2.2,0,0,0-.09-.14s.33-.28.18-1.5c0,.16.23.11.37.44a1.12,1.12,0,0,1-.17.92c.19-.12.22,0,.2.24a3.12,3.12,0,0,1-.77,1.43l.12-.07c.86-.43,1-2.31,1.35-2.39.21.45-.23,1.24-.23,1.24a2.31,2.31,0,0,0,.45-.92c.06.19.3.27.47.38a.06.06,0,0,0,.09,0c.07,0,.12-.13.15,0a.42.42,0,0,0,.15.46c1,.73,1.8,1.59,2.73,2.34a21.6,21.6,0,0,0,5.64,3.26,19.31,19.31,0,0,0,2.09.76c.09,0,.3.16.2-.13,0-.09-.07-.2,0-.27s.18,0,.27,0A6.6,6.6,0,0,0,143,41a3.89,3.89,0,0,1,1.12.12,6.75,6.75,0,0,1,2.7,1.9c.19.23.41.44.61.66s.2.24.3.36l.09-.09a6.54,6.54,0,0,1-.86-1.22l.92.73.07-.07-.52-.75a.6.6,0,0,1,.47.24c.05,0,.11.17.17.07s.21,0,.3,0l1.41.44a1,1,0,0,1,.49.3c.23.25.48.49.72.74l.05,0-.61-.81c.63.17,1,.68,1.57.71.07,0-.08-.14,0-.22a1.51,1.51,0,0,0,.75.11c.47-.09.85.26,1.16.63a.26.26,0,0,1,0,.43c-.37.33-.72.68-1.08,1a.62.62,0,0,0-.19.8,1,1,0,0,1,0,.84.35.35,0,0,0,.06.46l.62.62.24.2c-.42.6-1.09,1.68-1.61,2.35a5.11,5.11,0,0,1-1.79,1.72l-2.23-3.67a5.43,5.43,0,0,0-1.11-1.39,1.75,1.75,0,0,0-1.26-.49,2,2,0,0,0-2,1.55,1.59,1.59,0,0,1,1.21.84l3.59,5.9,0,4a2.73,2.73,0,0,0,.46,1.73,1.64,1.64,0,0,0,1.32.58,3.76,3.76,0,0,0,1.58-.33,3.45,3.45,0,0,1-.33-1.65c0-1.45,0-2.1,0-3.56a2.11,2.11,0,0,1,.75-1.89,17.88,17.88,0,0,0,2.21-2.7c.3-.44.59-.91.88-1.37a1.25,1.25,0,0,0,.67.22.76.76,0,0,0,0-.16,1.57,1.57,0,0,0-.31-.55l.33-.56a4.3,4.3,0,0,0,.84.06l-.53-.56.13-.22.24.07.61.09a2.36,2.36,0,0,0-.44-.55l-.12-.11c.14-.25.28-.53.44-.83a1,1,0,0,0,.5.06c.12,0,.15-.05.12-.19a.56.56,0,0,0-.33-.41h0c.3-.61.62-1.29.93-2a2.34,2.34,0,0,0,.45.49c.14-.08,0-.2.09-.28l1,1.22.07,0c-.07-.26-.15-.51-.24-.81.58.53.67,1.32,1.17,1.87.11-.16,0-.28,0-.44l.52,1.06.1,0c-.21-.67-.51-1.32-.67-2,.38.41.55,1,.92,1.44.07-.19-.09-.29,0-.53.15.18.25.33.38.46,1.12,1.14,2.23,2.29,3.36,3.42,2.19,2.2,4.37,4.41,6.62,6.54,1.19,1.11,2.34,2.27,3.55,3.37a13.3,13.3,0,0,0,1.57,1.33.92.92,0,0,0,.7.17,6.86,6.86,0,0,0,1.84-.55,2.14,2.14,0,0,0,1-.72,2.13,2.13,0,0,1,1-.83,1.88,1.88,0,0,0,1-1.24,10,10,0,0,0,.33-1.31,2.51,2.51,0,0,1,.11-.63c.13-.23.42-.09.63-.14a6.44,6.44,0,0,0,2.7-1.5.63.63,0,0,0,.16-.24,11.58,11.58,0,0,0,.54-3.25A1,1,0,0,0,186.92,51.23Zm-23.1-30.38h0c0,.05,0,.1,0,.15s-.11,0-.12,0S163.75,20.88,163.82,20.85Zm-.16,1.27h0a.68.68,0,0,0,0,.14s-.09-.05-.08-.08S163.6,22.15,163.66,22.12ZM163,23s0,0,.12,0a.89.89,0,0,1,.29,0l.14,0c-.13.86-.28,1.69-.44,2.47h0a.6.6,0,0,1-.13-.25c0-.3,0-.6,0-.9v-.16h0c0-.31,0-.62,0-.93C163,23.13,163,23,163,23Zm-8.09,22.77c0-.14-.07-.19-.11-.25s-.07-.21,0-.22c.38-.06.36-.54.69-.65.06,0,.12-.1.19-.11s.31-.07.4,0a.15.15,0,0,1,0,.09l0,0c-.29.54-.59,1.08-.89,1.58l-.38-.14a5.12,5.12,0,0,1-.64-.29C154.48,45.51,154.68,45.41,154.92,45.73Zm-1.26.89c.09-.07.15-.21.27-.24a.17.17,0,0,1,.11,0c.28.08.41.12.68.22l.28.08-.35.57a2.19,2.19,0,0,1-.41-.14c-.23-.11-.19-.14-.36-.2a.8.8,0,0,1-.21-.15.09.09,0,0,1,0-.09A.08.08,0,0,1,153.66,46.62Zm-.41,1.26s0-.23.1-.28.15.08.22.14.23.2.34.29a1.36,1.36,0,0,1,.2.11l-.25.4a1.64,1.64,0,0,1-.24-.19A2.32,2.32,0,0,1,153.25,47.88Z"/><rect class="cls-2" width="187.2" height="62.32"/></g></g></svg>